<?xml version="1.0" standalone="no"?>
<!DOCTYPE svg PUBLIC "-//W3C//DTD SVG 20010904//EN"
 "http://www.w3.org/TR/2001/REC-SVG-20010904/DTD/svg10.dtd">
<svg version="1.0" xmlns="http://www.w3.org/2000/svg"
 width="640.000000pt" height="640.000000pt" viewBox="0 0 640.000000 640.000000"
 preserveAspectRatio="xMidYMid meet">

<g transform="translate(0.000000,640.000000) scale(0.100000,-0.100000)"
fill="#000000" stroke="none">
<path d="M1165 4461 c31 -20 1886 -1093 1986 -1150 l56 -31 244 141 c134 78
316 183 404 234 88 50 417 241 730 422 314 182 600 347 635 367 l65 36 -2075
0 c-2037 0 -2074 -1 -2045 -19z"/>
<path d="M920 3214 l0 -1209 765 765 c421 421 765 767 765 770 0 3 -24 18 -53
34 -28 16 -189 109 -357 206 -168 97 -481 279 -697 403 -215 125 -399 230
-407 233 -15 6 -16 -105 -16 -1202z"/>
<path d="M5125 4216 c-192 -111 -530 -307 -751 -435 -221 -127 -409 -237 -418
-244 -15 -11 3 -31 146 -172 160 -157 468 -458 883 -865 116 -113 276 -270
358 -350 l147 -144 0 1207 c0 664 -3 1207 -7 1207 -5 0 -165 -92 -358 -204z"/>
<path d="M1805 2680 l-780 -780 2180 0 2180 1 -130 126 c-71 69 -218 212 -325
317 -107 105 -312 306 -455 446 -143 140 -353 346 -466 458 l-207 204 -285
-166 c-169 -98 -296 -166 -311 -166 -16 0 -143 68 -311 165 -157 91 -291 168
-298 170 -6 3 -363 -346 -792 -775z"/>
</g>
</svg>
