<?xml version="1.0" standalone="no"?>
<!DOCTYPE svg PUBLIC "-//W3C//DTD SVG 20010904//EN"
 "http://www.w3.org/TR/2001/REC-SVG-20010904/DTD/svg10.dtd">
<svg version="1.0" xmlns="http://www.w3.org/2000/svg"
 width="640.000000pt" height="640.000000pt" viewBox="0 0 640.000000 640.000000"
 preserveAspectRatio="xMidYMid meet">

<g transform="translate(0.000000,640.000000) scale(0.100000,-0.100000)"
fill="#000000" stroke="none">
<path d="M2101 5890 c-102 -21 -312 -100 -445 -167 -165 -83 -396 -242 -473
-326 -54 -58 -89 -128 -103 -204 -9 -50 -7 -92 10 -235 108 -915 423 -1768
933 -2527 211 -314 420 -565 706 -851 353 -352 679 -608 1096 -858 346 -207
436 -240 576 -208 143 32 412 211 618 411 207 202 280 304 301 427 22 128 -21
251 -122 351 -35 34 -233 217 -440 407 -447 409 -468 424 -615 423 -79 -1
-111 -8 -323 -71 l-235 -71 -38 37 c-217 209 -536 629 -711 935 -70 123 -214
411 -242 482 l-16 42 161 204 c108 136 167 220 180 255 30 78 36 160 18 230
-9 32 -104 297 -213 588 -211 566 -222 588 -315 656 -83 60 -214 89 -308 70z
m153 -302 c18 -18 43 -58 54 -89 11 -31 97 -263 191 -516 111 -298 171 -473
171 -498 0 -44 8 -31 -209 -305 -85 -107 -161 -211 -168 -231 -14 -42 -4 -88
43 -195 257 -593 581 -1075 1022 -1521 157 -159 127 -156 471 -55 153 45 294
82 312 82 19 0 46 -8 60 -18 29 -19 679 -612 782 -712 63 -62 67 -69 67 -111
0 -54 -15 -79 -117 -194 -182 -205 -514 -445 -614 -445 -83 0 -527 269 -859
521 -967 733 -1676 1808 -1970 2988 -68 273 -140 700 -140 833 0 50 2 54 58
108 122 119 395 275 617 352 140 48 184 49 229 6z"/>
</g>
</svg>
