<?xml version="1.0" standalone="no"?>
<!DOCTYPE svg PUBLIC "-//W3C//DTD SVG 20010904//EN"
 "http://www.w3.org/TR/2001/REC-SVG-20010904/DTD/svg10.dtd">
<svg version="1.0" xmlns="http://www.w3.org/2000/svg"
 width="640.000000pt" height="640.000000pt" viewBox="0 0 640.000000 640.000000"
 preserveAspectRatio="xMidYMid meet">

<g transform="translate(0.000000,640.000000) scale(0.100000,-0.100000)"
fill="#000000" stroke="none">
<path d="M2980 5585 c-570 -96 -1006 -503 -1147 -1071 -24 -96 -27 -129 -27
-274 -1 -150 2 -175 27 -274 126 -482 479 -1306 1187 -2771 45 -93 105 -219
134 -279 l51 -108 69 148 c38 82 116 245 173 363 57 117 103 215 103 216 0 1
36 78 81 171 509 1061 823 1813 942 2259 29 109 32 133 32 265 -1 113 -6 168
-24 249 -62 281 -189 516 -383 709 -119 118 -225 193 -373 267 -212 105 -390
146 -630 144 -77 -1 -174 -7 -215 -14z m450 -520 c309 -83 558 -332 640 -641
122 -462 -146 -942 -605 -1084 -424 -132 -886 75 -1074 482 -63 135 -76 200
-76 378 0 131 4 167 23 234 97 338 370 583 722 650 58 11 306 -2 370 -19z"/>
</g>
</svg>
